<svg width="25" height="25" viewBox="0 0 25 25" fill="none" xmlns="http://www.w3.org/2000/svg">
<path d="M0 5.41667C0 2.42512 2.42512 0 5.41667 0C8.40821 0 10.8333 2.42512 10.8333 5.41667C10.8333 8.40821 8.40821 10.8333 5.41667 10.8333C2.42512 10.8333 0 8.40821 0 5.41667Z" fill="white"/>
<path d="M0 19.5833C0 16.5918 2.42512 14.1667 5.41667 14.1667C8.40821 14.1667 10.8333 16.5918 10.8333 19.5833C10.8333 22.5749 8.40821 25 5.41667 25C2.42512 25 0 22.5749 0 19.5833Z" fill="white"/>
<path d="M14.1667 5.41667C14.1667 2.42512 16.5918 0 19.5833 0C22.5749 0 25 2.42512 25 5.41667C25 8.40821 22.5749 10.8333 19.5833 10.8333C16.5918 10.8333 14.1667 8.40821 14.1667 5.41667Z" fill="white"/>
<path d="M14.1667 19.5833C14.1667 16.5918 16.5918 14.1667 19.5833 14.1667C22.5749 14.1667 25 16.5918 25 19.5833C25 22.5749 22.5749 25 19.5833 25C16.5918 25 14.1667 22.5749 14.1667 19.5833Z" fill="white"/>
<path d="M11 19.5C11 22.5376 8.53757 25 5.5 25C2.46243 25 0 22.5376 0 19.5C0 16.4624 2.46243 14 5.5 14C8.53757 14 11 16.4624 11 19.5Z" fill="#FD5B35"/>
<path d="M25 5.5C25 8.53757 22.5376 11 19.5 11C16.4624 11 14 8.53757 14 5.5C14 2.46243 16.4624 0 19.5 0C22.5376 0 25 2.46243 25 5.5Z" fill="#FD5B35"/>
</svg>
